<svg width="24" height="14" viewBox="0 0 24 14" fill="none" xmlns="http://www.w3.org/2000/svg">
<path d="M0.863862 8.73521L4.67432 12.8081C4.76586 12.9058 4.87476 12.9833 4.99474 13.0361C5.11472 13.089 5.24342 13.1162 5.3734 13.1162C5.50338 13.1162 5.63208 13.089 5.75206 13.0361C5.87205 12.9833 5.98094 12.9058 6.07248 12.8081C6.16476 12.7113 6.23801 12.5961 6.288 12.4691C6.33799 12.3422 6.36373 12.2061 6.36373 12.0685C6.36373 11.931 6.33799 11.7949 6.288 11.6679C6.23801 11.541 6.16476 11.4258 6.07248 11.329L2.56725 7.59979H22.6436C22.9047 7.59979 23.1551 7.49004 23.3398 7.29469C23.5244 7.09934 23.6282 6.83439 23.6282 6.55812C23.6282 6.28186 23.5244 6.0169 23.3398 5.82155C23.1551 5.6262 22.9047 5.51646 22.6436 5.51646H2.50817L6.07248 1.74562C6.24704 1.5519 6.34442 1.29452 6.34442 1.02687C6.34442 0.759226 6.24704 0.501849 6.07248 0.308123C5.98094 0.210489 5.87205 0.132995 5.75206 0.0801111C5.63208 0.0272271 5.50338 0 5.3734 0C5.24342 0 5.11472 0.0272271 4.99474 0.0801111C4.87476 0.132995 4.76586 0.210489 4.67432 0.308123L0.863862 4.31854C0.310703 4.90448 0 5.69875 0 6.52687C0 7.355 0.310703 8.14927 0.863862 8.73521V8.73521Z" fill="#374957"/>
</svg>
